<svg width="1536" height="864" viewBox="0 0 1536 864" fill="none" xmlns="http://www.w3.org/2000/svg">
  <defs>
    <radialGradient id="lamp" cx="0" cy="0" r="1" gradientUnits="userSpaceOnUse" gradientTransform="translate(920 144) rotate(112) scale(530 770)">
      <stop stop-color="#c58a56" stop-opacity="0.9"/>
      <stop offset="0.23" stop-color="#6f4833" stop-opacity="0.5"/>
      <stop offset="0.65" stop-color="#131516" stop-opacity="0.35"/>
      <stop offset="1" stop-color="#030405" stop-opacity="0"/>
    </radialGradient>
    <radialGradient id="fog" cx="0" cy="0" r="1" gradientUnits="userSpaceOnUse" gradientTransform="translate(906 655) rotate(-10) scale(560 152)">
      <stop stop-color="#b1795d" stop-opacity="0.62"/>
      <stop offset="0.55" stop-color="#5d382f" stop-opacity="0.32"/>
      <stop offset="1" stop-color="#050607" stop-opacity="0"/>
    </radialGradient>
    <linearGradient id="street" x1="248" y1="144" x2="1192" y2="760" gradientUnits="userSpaceOnUse">
      <stop stop-color="#2e3131"/>
      <stop offset="0.45" stop-color="#151718"/>
      <stop offset="1" stop-color="#040505"/>
    </linearGradient>
    <filter id="blur">
      <feGaussianBlur stdDeviation="18"/>
    </filter>
  </defs>

  <rect width="1536" height="864" fill="#030405"/>
  <rect width="1536" height="864" fill="url(#street)" opacity="0.72"/>
  <rect width="1536" height="864" fill="url(#lamp)"/>
  <path d="M0 0H1536V864H0V0Z" fill="url(#fog)"/>

  <g opacity="0.28" filter="url(#blur)">
    <rect x="250" y="164" width="220" height="390" fill="#54504a"/>
    <rect x="548" y="88" width="142" height="500" fill="#5e5148"/>
    <rect x="748" y="80" width="248" height="540" fill="#463934"/>
    <rect x="1032" y="96" width="170" height="604" fill="#211f1e"/>
    <circle cx="792" cy="183" r="22" fill="#f5ba71"/>
    <circle cx="1050" cy="174" r="27" fill="#f3b66d"/>
    <circle cx="660" cy="214" r="12" fill="#d7d0bd"/>
    <circle cx="596" cy="216" r="10" fill="#d7d0bd"/>
    <rect x="166" y="420" width="198" height="120" rx="28" fill="#15191a"/>
    <circle cx="295" cy="497" r="16" fill="#a6371c"/>
    <circle cx="330" cy="497" r="16" fill="#c44a1f"/>
  </g>

  <g opacity="0.98">
    <path d="M642 271C696 266 729 293 739 350L765 616H559L584 384C588 326 596 279 642 271Z" fill="#050606"/>
    <path d="M615 253C628 222 673 218 701 239C727 259 722 300 699 318C668 342 612 321 615 253Z" fill="#050606"/>
    <path d="M704 319C726 333 740 364 742 392L765 621H730C710 524 710 421 704 319Z" fill="#080909"/>
  </g>

  <g opacity="0.98">
    <path d="M895 264C938 260 977 286 987 342L1016 620H826L846 382C852 318 862 272 895 264Z" fill="#020303"/>
    <path d="M867 235C886 203 929 199 954 225C980 253 967 300 936 317C901 336 848 306 867 235Z" fill="#020303"/>
    <path d="M943 334C972 351 987 382 990 420L1014 621H970C946 534 950 425 943 334Z" fill="#050505"/>
    <rect x="995" y="407" width="12" height="58" rx="6" transform="rotate(64 995 407)" fill="#050505"/>
  </g>

  <path d="M0 704C205 648 380 640 556 660C736 681 932 733 1146 690C1312 657 1448 610 1536 586V864H0V704Z" fill="#090908" opacity="0.85"/>
  <path d="M530 690C690 650 830 660 1006 702C1138 733 1285 733 1536 678V864H0V782C201 750 360 730 530 690Z" fill="#2a1512" opacity="0.32" filter="url(#blur)"/>
  <rect width="1536" height="864" fill="black" opacity="0.16"/>
  <text x="58" y="812" fill="#bca76a" font-family="Courier New, monospace" font-size="18" opacity="0.62">DEX // IMAGE EXTRAITE // SOURCE NON CONFIRMEE</text>
</svg>
