<svg xmlns="http://www.w3.org/2000/svg" viewBox="0 0 941 1672" role="img" aria-labelledby="title desc">
  <title id="title">Portrait verrouillé P-13</title>
  <desc id="desc">Fallback graphique pour le portrait de Panam Palmer.</desc>
  <defs>
    <radialGradient id="red" cx="42%" cy="48%" r="58%">
      <stop offset="0" stop-color="#8d101b" stop-opacity=".78"/>
      <stop offset=".42" stop-color="#210407" stop-opacity=".55"/>
      <stop offset="1" stop-color="#000" stop-opacity="0"/>
    </radialGradient>
    <linearGradient id="metal" x1="0" y1="0" x2="1" y2="1">
      <stop offset="0" stop-color="#d2c7b3"/>
      <stop offset=".5" stop-color="#5b5750"/>
      <stop offset="1" stop-color="#171717"/>
    </linearGradient>
    <pattern id="scan" width="100%" height="12" patternUnits="userSpaceOnUse">
      <rect width="100%" height="5" fill="rgba(255,255,255,.035)"/>
      <rect y="5" width="100%" height="7" fill="rgba(0,0,0,.2)"/>
    </pattern>
  </defs>
  <rect width="941" height="1672" fill="#020202"/>
  <circle cx="470" cy="520" r="315" fill="url(#red)"/>
  <path d="M470 70 L602 610 L532 610 L470 330 L408 610 L338 610 Z" fill="url(#metal)" opacity=".55"/>
  <path d="M262 240 A410 410 0 0 0 194 690" fill="none" stroke="url(#metal)" stroke-width="34" opacity=".48"/>
  <path d="M679 240 A410 410 0 0 1 747 690" fill="none" stroke="url(#metal)" stroke-width="34" opacity=".48"/>
  <path d="M215 728 H726" stroke="url(#metal)" stroke-width="28" opacity=".5"/>
  <path d="M318 1560 C340 1180 376 950 470 950 C564 950 602 1180 624 1560 Z" fill="#161515"/>
  <ellipse cx="470" cy="742" rx="130" ry="164" fill="#0a0909"/>
  <path d="M342 714 C386 610 546 602 602 712 C574 690 538 672 470 672 C402 672 364 690 342 714 Z" fill="#0d0d0d"/>
  <rect x="160" y="1310" width="621" height="86" fill="#160307" opacity=".7"/>
  <text x="470" y="1359" text-anchor="middle" fill="#d2b66f" font-family="Courier New, monospace" font-size="34" letter-spacing="10">P-13</text>
  <text x="470" y="1412" text-anchor="middle" fill="#f0e8d5" font-family="Courier New, monospace" font-size="22" letter-spacing="4">PORTRAIT NON RESTAURÉ</text>
  <rect width="941" height="1672" fill="url(#scan)" opacity=".62"/>
</svg>
